<svg width="15" height="15" viewBox="0 0 15 15" fill="none" xmlns="http://www.w3.org/2000/svg">
<path d="M12.966 2.08028C12.7219 1.8362 12.3262 1.8362 12.0821 2.08028L7.52313 6.63927L2.96416 2.08028C2.72008 1.8362 2.32435 1.8362 2.08028 2.08028C1.8362 2.32435 1.8362 2.72008 2.08028 2.96416L6.63925 7.52315L2.08029 12.0821C1.83621 12.3262 1.83621 12.7219 2.08029 12.966C2.32437 13.2101 2.7201 13.2101 2.96417 12.966L7.52313 8.40702L12.0821 12.966C12.3262 13.2101 12.7219 13.2101 12.966 12.966C13.2101 12.7219 13.2101 12.3262 12.966 12.0821L8.407 7.52315L12.966 2.96416C13.2101 2.72008 13.2101 2.32435 12.966 2.08028Z" fill="white"/>
</svg>
