<svg width="25" height="25" viewBox="0 0 25 25" fill="none" xmlns="http://www.w3.org/2000/svg">
<path d="M16.8418 20.9776C16.7122 20.8988 16.5993 20.7931 16.5096 20.6651C16.4682 20.606 16.4332 20.5436 16.4042 20.479H1.68373V5.96976H21.6646V15.4438C22.0912 15.4823 22.4491 15.7625 22.5994 16.1461C22.7324 16.0732 22.8807 16.0281 23.0366 16.0144C23.142 16.0052 23.2467 16.0118 23.3483 16.0318V2.35517C23.3483 1.58147 22.719 0.952026 21.9453 0.952026H1.40309C0.629449 0.952026 0 1.58147 0 2.35517V20.7597C0 21.5334 0.629449 22.1628 1.40309 22.1628H16.7139C16.5944 21.9209 16.5661 21.6477 16.6364 21.385C16.6769 21.2338 16.747 21.0959 16.8418 20.9776ZM20.1238 3.30819C20.1238 3.02207 20.3558 2.79007 20.6419 2.79007H21.16C21.4461 2.79007 21.678 3.02201 21.678 3.30819V3.89537C21.678 4.18149 21.4461 4.41343 21.16 4.41343H20.6419C20.3557 4.41343 20.1238 4.18149 20.1238 3.89537V3.30819ZM17.7148 3.30819C17.7148 3.02207 17.9468 2.79007 18.2329 2.79007H18.751C19.0372 2.79007 19.2691 3.02201 19.2691 3.30819V3.89537C19.2691 4.18149 19.0371 4.41343 18.751 4.41343H18.2329C17.9468 4.41343 17.7148 4.18149 17.7148 3.89537V3.30819ZM15.3057 3.30819C15.3057 3.02207 15.5377 2.79007 15.8238 2.79007H16.3419C16.628 2.79007 16.86 3.02201 16.86 3.30819V3.89537C16.86 4.18149 16.628 4.41343 16.3419 4.41343H15.8238C15.5377 4.41343 15.3057 4.18149 15.3057 3.89537V3.30819Z" fill="white"/>
<path d="M24.9966 19.9895L24.841 19.1066C24.82 18.9878 24.7067 18.9083 24.5877 18.9293L23.8025 19.0676C23.7083 18.8465 23.5879 18.6393 23.445 18.4497L23.9578 17.8384C23.9951 17.7941 24.0133 17.7367 24.0083 17.6788C24.0032 17.621 23.9753 17.5677 23.9309 17.5304L23.2442 16.9541C23.1998 16.9168 23.1422 16.8987 23.0845 16.9038C23.0267 16.9088 22.9733 16.9366 22.9361 16.9811L22.4237 17.5919C22.2134 17.4847 21.9884 17.4021 21.7527 17.3475V16.5503C21.7527 16.4295 21.6548 16.3315 21.5341 16.3315H20.6375C20.5168 16.3315 20.4188 16.4295 20.4188 16.5503V17.3475C20.183 17.402 19.9583 17.4847 19.7478 17.5919L19.2353 16.9811C19.1577 16.8886 19.0198 16.8766 18.9273 16.9541L18.2405 17.5304C18.1961 17.5677 18.1683 17.621 18.1632 17.6788C18.1582 17.7367 18.1763 17.7942 18.2136 17.8386L18.7265 18.4497C18.5838 18.6393 18.4632 18.8466 18.369 19.0677L17.5838 18.9293C17.4651 18.9084 17.3516 18.9878 17.3305 19.1066L17.1749 19.9895C17.1648 20.0466 17.1779 20.1053 17.211 20.1529C17.2444 20.2005 17.295 20.2328 17.3521 20.2428L18.1378 20.3813C18.1506 20.6247 18.193 20.8603 18.2613 21.0845L17.5707 21.4831C17.5204 21.512 17.4838 21.5598 17.4687 21.6158C17.4537 21.6718 17.4617 21.7315 17.4906 21.7817L17.9388 22.5581C17.9677 22.6083 18.0156 22.645 18.0715 22.66C18.0902 22.665 18.1091 22.6674 18.1281 22.6674C18.1662 22.6674 18.2039 22.6575 18.2374 22.6381L18.9286 22.2391C19.0911 22.4132 19.2746 22.5675 19.4751 22.698L19.2022 23.4477C19.1824 23.5022 19.185 23.5624 19.2095 23.6149C19.234 23.6675 19.2784 23.7082 19.3329 23.7279L20.1751 24.0345C20.1993 24.0433 20.2247 24.0478 20.25 24.0478C20.2815 24.0478 20.3133 24.041 20.3425 24.0273C20.3951 24.0028 20.4356 23.9584 20.4554 23.9039L20.7283 23.1542C20.8453 23.1683 20.9643 23.1756 21.0851 23.1756C21.2059 23.1756 21.325 23.1682 21.442 23.1542L21.7149 23.9039C21.7346 23.9584 21.7753 24.0028 21.8278 24.0273C21.857 24.0409 21.8886 24.0478 21.9203 24.0478C21.9456 24.0478 21.9709 24.0434 21.9951 24.0345L22.8375 23.7279C22.8918 23.7082 22.9363 23.6674 22.9607 23.6149C22.9852 23.5624 22.9879 23.5022 22.968 23.4477L22.6951 22.6981C22.8955 22.5676 23.079 22.4132 23.2417 22.2392L23.9328 22.6382C23.9663 22.6575 24.004 22.6675 24.0421 22.6675C24.061 22.6675 24.0802 22.665 24.0987 22.6601C24.1547 22.6451 24.2025 22.6083 24.2314 22.5582L24.6796 21.7817C24.7086 21.7316 24.7165 21.6718 24.7015 21.6158C24.6864 21.56 24.6498 21.5121 24.5996 21.4831L23.9091 21.0846C23.9773 20.8603 24.0196 20.6248 24.0324 20.3814L24.8181 20.2429C24.8753 20.2328 24.926 20.2005 24.9592 20.1529C24.9937 20.1053 25.0067 20.0466 24.9966 19.9895ZM21.0858 21.3925C20.4217 21.3925 19.8833 20.854 19.8833 20.1899C19.8833 19.5257 20.4218 18.9873 21.0858 18.9873C21.75 18.9873 22.2885 19.5257 22.2885 20.1899C22.2885 20.854 21.75 21.3925 21.0858 21.3925Z" fill="white"/>
<path d="M9.80486 14.0126C9.80486 13.7296 9.63906 13.4698 9.38241 13.3506L7.03351 12.2592L9.38247 11.1677C9.63906 11.0484 9.80486 10.7886 9.80486 10.5058V10.4869C9.80486 10.2362 9.67871 10.0061 9.4676 9.87163C9.3508 9.79704 9.21477 9.75757 9.07433 9.75757C8.96848 9.75757 8.86221 9.78085 8.76713 9.82502L5.01187 11.5713C4.75534 11.6906 4.58966 11.9504 4.58966 12.2332V12.2854C4.58966 12.5677 4.75528 12.8274 5.01193 12.9473L8.76755 14.6937C8.86465 14.7387 8.96806 14.7615 9.07486 14.7615C9.21405 14.7615 9.34967 14.722 9.4676 14.6469C9.67883 14.5119 9.80492 14.282 9.80492 14.0317L9.80486 14.0126Z" fill="white"/>
<path d="M13.5101 7.97816C13.3731 7.79063 13.1527 7.67871 12.9206 7.67871H12.9019C12.5832 7.67871 12.3037 7.88261 12.2066 8.1857L9.73241 15.852C9.66198 16.0733 9.70163 16.3171 9.83844 16.5046C9.97543 16.692 10.1958 16.804 10.4279 16.804H10.4466C10.7653 16.804 11.0445 16.6 11.1415 16.297L13.6154 8.63131C13.6865 8.41014 13.6471 8.16599 13.5101 7.97816Z" fill="white"/>
<path d="M18.3364 11.5712L14.5811 9.8249C14.4863 9.78085 14.3802 9.75757 14.2744 9.75757C14.134 9.75757 13.9979 9.79692 13.8811 9.8714C13.6697 10.0061 13.5435 10.2362 13.5435 10.4868V10.5058C13.5435 10.7883 13.7092 11.0482 13.966 11.168L16.3149 12.2592L13.966 13.3505C13.7093 13.4697 13.5435 13.7296 13.5435 14.0125V14.0316C13.5435 14.2819 13.6697 14.5118 13.881 14.6469C13.9985 14.7218 14.1343 14.7614 14.2736 14.7614C14.3803 14.7614 14.4836 14.7386 14.5814 14.6935L18.3369 12.947C18.5933 12.8274 18.7588 12.5677 18.7588 12.2854V12.2332C18.7587 11.9504 18.593 11.6906 18.3364 11.5712Z" fill="white"/>
</svg>
