<svg width="20" height="20" viewBox="0 0 20 20" fill="none" xmlns="http://www.w3.org/2000/svg">
<path fill-rule="evenodd" clip-rule="evenodd" d="M12 3C12 2.46957 11.7893 1.96086 11.4142 1.58579C11.0391 1.21071 10.5304 1 10 1C9.46957 1 8.96086 1.21071 8.58579 1.58579C8.21071 1.96086 8 2.46957 8 3C8 3.53043 8.21071 4.03914 8.58579 4.41421C8.96086 4.78929 9.46957 5 10 5C10.5304 5 11.0391 4.78929 11.4142 4.41421C11.7893 4.03914 12 3.53043 12 3ZM10 8C10.5304 8 11.0391 8.21071 11.4142 8.58579C11.7893 8.96086 12 9.46957 12 10C12 10.5304 11.7893 11.0391 11.4142 11.4142C11.0391 11.7893 10.5304 12 10 12C9.46957 12 8.96086 11.7893 8.58579 11.4142C8.21071 11.0391 8 10.5304 8 10C8 9.46957 8.21071 8.96086 8.58579 8.58579C8.96086 8.21071 9.46957 8 10 8ZM10 15C10.5304 15 11.0391 15.2107 11.4142 15.5858C11.7893 15.9609 12 16.4696 12 17C12 17.5304 11.7893 18.0391 11.4142 18.4142C11.0391 18.7893 10.5304 19 10 19C9.46957 19 8.96086 18.7893 8.58579 18.4142C8.21071 18.0391 8 17.5304 8 17C8 16.4696 8.21071 15.9609 8.58579 15.5858C8.96086 15.2107 9.46957 15 10 15Z" fill="white"/>
</svg>